<svg id="yulansvg" xmlns="http://www.w3.org/2000/svg" data-v-056d9bd8="" version="1.0" width="120" height="135" viewBox="0 0 120.000000 135.000000" preserveAspectRatio="xMidYMid meet" color-interpolation-filters="sRGB" class="el-tooltip"><svg width="120" height="120" x="0" y="0"><svg xmlns="http://www.w3.org/2000/svg" viewBox="0 0 15.25 15.25"><g><path d="M10.67 3a5.52 5.52 0 0 0-7.09.86A.69.69 0 0 0 3.87 5l.67.22a.68.68 0 0 0 .69-.15 3.49 3.49 0 0 1 5 .24.7.7 0 0 0 1 .07L12 4.7a.69.69 0 0 1 1.08.22 6.12 6.12 0 0 1-2.5 8.08.69.69 0 0 0-.34.75v.12a.69.69 0 0 0 1 .47 7.63 7.63 0 0 0 2-11.8.7.7 0 0 0-1-.06l-.53.47a.92.92 0 0 1-1.04.05zM4.32 6.5a3.5 3.5 0 0 0 2.3 4.5.68.68 0 0 1 .48.52l.14.69a.69.69 0 0 1-.83.82 5.52 5.52 0 0 1-4.3-5.38v-.34a.92.92 0 0 0-.63-.94l-.66-.24a.7.7 0 0 1-.44-.87A7.63 7.63 0 0 1 11.6 1.12a.68.68 0 0 1 .33.53.68.68 0 0 1-.23.58l-.09.08a.68.68 0 0 1-.82.08 6.12 6.12 0 0 0-8.25 1.84.69.69 0 0 0 .35 1l1 .35a.7.7 0 0 1 .43.88zm4 4.56A3.5 3.5 0 0 0 11 6.82a.68.68 0 0 1 .21-.68l.53-.47a.69.69 0 0 1 1.15.33 5.52 5.52 0 0 1-2.8 6.58.91.91 0 0 0-.49 1l.14.69a.7.7 0 0 1-.54.82A7.63 7.63 0 0 1 0 7.63v-.19a.68.68 0 0 1 .3-.55.67.67 0 0 1 .61-.09h.12a.69.69 0 0 1 .48.67v.12a6.12 6.12 0 0 0 5.72 6.1.69.69 0 0 0 .77-.78l-.2-1a.7.7 0 0 1 .51-.85z" fill="rgb(191, 215, 48)" fill-rule="evenodd"></path></g></svg></svg><g class="font1 logoname" transform="translate(60, 130)" fill="#333333"> <path transform="translate(0, 0)" d=""></path></g><g class="font1 slogan" transform="translate(60, 135)" fill="#333333"> <path transform="translate(0, 0)" d=""></path></g></svg>