<svg id="yulansvg" xmlns="http://www.w3.org/2000/svg" data-v-056d9bd8="" version="1.0" width="100" height="115" viewBox="0 0 100.000000 115.000000" preserveAspectRatio="xMidYMid meet" color-interpolation-filters="sRGB" class="el-tooltip"><svg width="100" height="100" x="0" y="0"><svg xmlns="http://www.w3.org/2000/svg" viewBox="0 0 71.1 71.09"><g><g fill-rule="evenodd"><path d="M35.55 46l7.36-3 3-7.37-3-7.35-7.37-3.05-7.35 3-3.05 7.37 3 7.35L35.55 46zm0-2l6-2.47 2.47-6-2.47-6-6-2.48-6 2.47-2.47 6 2.47 6 6 2.48z" fill="rgb(191, 215, 48)"></path><path d="M62.92 46.89l-2.15-6.83h-3l-3.33 8 2.11 2.11 6.35-3.31zm-27.37 1l8.75-3.59 3.63-8.76-3.63-8.74-8.76-3.63-8.74 3.63-3.63 8.76 3.62 8.74 8.76 3.63zm4.51-34.62l8 3.33 2.11-2.11-3.28-6.32-6.83 2.15v3zM54.46 23l3.33 8h3l2.15-6.83-6.37-3.27-2.11 2.1zM35.55 49.89l10.14-4.2 4.2-10.15-4.2-10.13-10.15-4.2-10.13 4.19-4.2 10.15 4.2 10.13 10.15 4.21zM31 13.31v-3l-6.79-2.14-3.31 6.35 2.1 2.11 8-3.32zM13.31 31l3.33-8-2.12-2.1-6.35 3.31L10.32 31zm3.33 17l-3.32-8h-3l-2.15 6.89 6.35 3.31 2.11-2.11zm4.27 8.49l3.31 6.35L31 60.77v-3l-8-3.32-2.1 2.12zm19.16 1.21v3l6.83 2.15 3.31-6.35-2.11-2.11-8 3.32z" fill="rgb(191, 215, 48)"></path><path d="M67.31 48.7l-3.87-12.27h-8.08l-5.18 12.51 5.71 5.71 11.42-5.95zM38.24 14.52l10.27 4.25 3.91-3.91L47.8 6l-9.56 3v5.53zm14.08 8.07l4.26 10.27h5.52l3-9.55-8.88-4.63-3.91 3.91zM35.55 51.86l11.53-4.78 4.78-11.54L47.08 24l-11.54-4.76L24 24l-4.76 11.55L24 47.08l11.54 4.78zm-2.7-37.33V9L23.3 6l-4.63 8.88 3.91 3.91 10.27-4.25zM14.52 32.86l4.25-10.27-3.91-3.91L6 23.3l3 9.55zm4.26 15.66l-4.26-10.28H9L6 47.8l8.88 4.63 3.91-3.91zm-.1 7.72l4.62 8.88 9.55-3v-5.54l-10.27-4.26-3.91 3.91zm19.56.34v5.53l9.56 3 4.63-8.88-3.91-3.91-10.28 4.25zm26.88-8.78l-3-9.55h-5.54l-4.26 10.26 3.91 3.91 8.88-4.63zm-28.7-32.07l12.51 5.18 5.71-5.71L48.7 3.79 36.42 7.66v8.07zm13.75 6.42l5.18 12.51h8.08l3.87-12.28-11.41-5.93-5.71 5.71zM35.55 53.82l12.92-5.35 5.35-12.93-5.35-12.91-12.93-5.36-12.91 5.35-5.36 12.93 5.35 12.91 12.93 5.35zm-.88-38.08V7.66L22.39 3.79l-5.94 11.42 5.71 5.71 12.51-5.18zM15.73 34.67l5.18-12.51-5.71-5.71-11.41 5.94 3.87 12.28zm5.19 14.26l-5.18-12.5H7.66L3.79 48.7l11.42 5.95 5.71-5.71zm-4.47 7l5.95 11.42 12.28-3.87v-8.12l-12.52-5.18-5.71 5.71zm20-.53v8.08l12.25 3.83 5.95-11.42-5.71-5.71-12.52 5.18zM68.74 47.4l2.36-11.84-2.36-11.86L65 35.55l3.74 11.85zm-6.79-31.83l-2.57-3.84-3.85-2.58 2.2 4.22 4.22 2.2zM40.09 2.75l-4.53-.9-4.56.91 4.54 1.43 4.54-1.43zm-24.52 6.4l-3.84 2.57-2.58 3.85 4.22-2.2 2.2-4.22zM2.75 31l-.9 4.53.9 4.55 1.43-4.54L2.75 31zm6.4 24.53l2.57 3.84 3.86 2.58-2.2-4.22-4.22-2.2zM31 68.34l4.54.9 4.55-.9-4.54-1.43L31 68.34zm24.52-6.39l3.84-2.57 2.57-3.86-4.22 2.2-2.2 4.22zm12.82-21.86l.9-4.53-.9-4.56-1.43 4.54 1.43 4.54zm-.94-19.63l-6.71-10-10-6.71 5.74 11 11 5.74zm-20-18.1L35.55 0 23.7 2.36l11.85 3.73L47.4 2.36zM20.46 3.7l-10 6.71L3.7 20.46l11-5.74 5.74-11zm-18.1 20L0 35.54 2.36 47.4l3.73-11.85L2.36 23.7zM3.7 50.64l6.71 10 10.05 6.76-5.74-11-11-5.74zm20 18.1l11.84 2.35 11.86-2.35L35.55 65 23.7 68.74zm26.94-1.34l10-6.71 6.76-10.05-11 5.74-5.74 11z" fill="rgb(191, 215, 48)"></path></g></g></svg></svg><g class="font1 logoname" transform="translate(50, 110)" fill="rgb(191, 215, 48)"> <path transform="translate(0, 0)" d=""></path></g><g class="font1 slogan" transform="translate(50, 115)" fill="rgb(191, 215, 48)"> <path transform="translate(0, 0)" d=""></path></g></svg>